# xmcd
# 
# Track frame offsets:
#     150
#     38532
#     63354
#     89140
#     115818
#     149887
#     180864
#     214662
#     229696
#     267307
#     294002
# 
# Disc length: 4351
# 
# Revision: 2
# Processed by: cddbd v1.5.2PL0 Copyright (c) Steve Scherf et al.
# Submitted via: fre:ac v1.0.31
# 
DISCID=9b10fd0b
DTITLE=Em'Bee and Gospel Move Singers - Em'Bee and Gospel Move Singers
DYEAR=2002
DGENRE=Gospel
TTITLE0=How Beautiful Day
TTITLE1=Deep River
TTITLE2=Swing Low, Sweet Chariot
TTITLE3=Precious Lord
TTITLE4=Somebody Is Knocking At Your Door
TTITLE5=Steal Away
TTITLE6=Oh When The Saints
TTITLE7=Hallélujah He Is The Lord
TTITLE8=I Will Pray
TTITLE9=Let It Shine
TTITLE10=Wiza Sonama
EXTD=
EXTT0=
EXTT1=
EXTT2=
EXTT3=
EXTT4=
EXTT5=
EXTT6=
EXTT7=
EXTT8=
EXTT9=
EXTT10=
PLAYORDER=
